<svg width="74" height="39" viewBox="0 0 74 39" fill="none" xmlns="http://www.w3.org/2000/svg">
<mask id="mask0_4251_1937" style="mask-type:luminance" maskUnits="userSpaceOnUse" x="0" y="0" width="38" height="39">
<path d="M0 0H37.5556V39H0V0Z" fill="white"/>
</mask>
<g mask="url(#mask0_4251_1937)">
<mask id="mask1_4251_1937" style="mask-type:luminance" maskUnits="userSpaceOnUse" x="-6" y="-8" width="62" height="61">
<path d="M55.2007 19.5849L21.8798 52.9058L-5.69727 25.3288L27.6237 -7.99219L55.2007 19.5849Z" fill="white"/>
</mask>
<g mask="url(#mask1_4251_1937)">
<mask id="mask2_4251_1937" style="mask-type:luminance" maskUnits="userSpaceOnUse" x="-6" y="-8" width="62" height="61">
<path d="M55.2017 19.5849L21.8808 52.9058L-5.69629 25.3288L27.6247 -7.99219L55.2017 19.5849Z" fill="white"/>
</mask>
<g mask="url(#mask2_4251_1937)">
<path d="M18.3824 2.26259V12.7348C18.3824 13.2708 17.9451 13.7081 17.4091 13.7081H8.18099C7.18793 13.7081 6.37826 14.515 6.37826 15.5109V18.7185C6.37826 19.201 6.56727 19.6523 6.90582 19.9937C7.24718 20.3351 7.70139 20.5213 8.18099 20.5213H23.3928C24.3859 20.5213 25.1955 19.7116 25.1955 18.7185V2.26259C25.1955 1.26671 24.3887 0.459853 23.3928 0.457031H20.1851C19.6886 0.457031 19.2372 0.660156 18.9099 0.987413C18.5827 1.31467 18.3824 1.76324 18.3824 2.26259ZM0.394531 27.3824V30.5901C0.394531 31.0725 0.58355 31.5239 0.922092 31.8652C1.26345 32.2066 1.71767 32.3928 2.19727 32.3928H23.3928C24.3887 32.3928 25.1955 31.5859 25.1955 30.5901V27.3824C25.1955 26.3865 24.3859 25.5796 23.3928 25.5796H2.19727C1.70074 25.5796 1.24935 25.78 0.922092 26.1072C0.597656 26.4345 0.394531 26.8859 0.394531 27.3824ZM30.8464 0.987413C31.1877 0.64605 31.6391 0.457031 32.1215 0.457031H35.3292C35.8116 0.459853 36.263 0.64605 36.6044 0.987413C36.9457 1.32595 37.1319 1.78017 37.1319 2.26259V36.6556C37.1348 37.6515 36.3251 38.4612 35.3292 38.4612L32.1215 38.4583C31.1285 38.4612 30.3188 37.6515 30.3188 36.6556V2.26259C30.3188 1.78017 30.505 1.32595 30.8464 0.987413Z" fill="#D61C1C"/>
</g>
</g>
</g>
<mask id="mask3_4251_1937" style="mask-type:luminance" maskUnits="userSpaceOnUse" x="41" y="0" width="33" height="38">
<path d="M41.4209 0.914062H73.3792V37.5556H41.4209V0.914062Z" fill="white"/>
</mask>
<g mask="url(#mask3_4251_1937)">
<path d="M72.3153 17.2771L44.8201 1.40511C44.1204 1.00168 43.2628 1.00168 42.5632 1.40511C41.8663 1.80572 41.4375 2.55051 41.4375 3.35737V35.1069C41.4375 35.9138 41.8663 36.6586 42.5632 37.0592C42.913 37.2651 43.3023 37.3611 43.6916 37.3611C44.0809 37.3611 44.4703 37.2623 44.8201 37.0592L72.3153 21.1844C73.015 20.7838 73.441 20.039 73.441 19.2322C73.441 18.4281 73.0122 17.6805 72.3153 17.2771Z" fill="#D61C1C"/>
</g>
</svg>
